<svg width="80" height="80" viewBox="0 0 80 80" fill="none" xmlns="http://www.w3.org/2000/svg">
<path d="M18.833 33.4167L25.333 36.1667C26.1108 34.6111 26.9163 33.1111 27.7497 31.6667C28.583 30.2222 29.4997 28.7778 30.4997 27.3333L25.833 26.4167L18.833 33.4167ZM30.6663 40.3333L40.1663 49.75C42.4997 48.8611 44.9997 47.5 47.6663 45.6667C50.333 43.8333 52.833 41.75 55.1663 39.4167C59.0552 35.5278 62.0975 31.2089 64.293 26.46C66.4886 21.7111 67.4463 17.3355 67.1663 13.3333C63.1663 13.0555 58.7775 14.0144 53.9997 16.21C49.2219 18.4055 44.8886 21.4467 40.9997 25.3333C38.6663 27.6667 36.583 30.1667 34.7497 32.8333C32.9163 35.5 31.5552 38 30.6663 40.3333ZM45.4997 34.9167C44.2219 33.6389 43.583 32.07 43.583 30.21C43.583 28.35 44.2219 26.78 45.4997 25.5C46.7775 24.22 48.3608 23.5811 50.2497 23.5833C52.1386 23.5855 53.7219 24.2244 54.9997 25.5C56.2775 26.7755 56.9163 28.3455 56.9163 30.21C56.9163 32.0744 56.2775 33.6433 54.9997 34.9167C53.7219 36.19 52.1386 36.8289 50.2497 36.8333C48.3608 36.8378 46.7775 36.1989 45.4997 34.9167ZM47.083 61.6667L54.083 54.6667L53.1663 50C51.7219 51 50.2774 51.9022 48.833 52.7067C47.3886 53.5111 45.8886 54.3033 44.333 55.0833L47.083 61.6667ZM73.1663 7.24999C74.2219 13.9722 73.5697 20.5144 71.2097 26.8767C68.8497 33.2389 64.7797 39.3078 58.9997 45.0833L60.6663 53.3333C60.8886 54.4444 60.833 55.5278 60.4997 56.5833C60.1663 57.6389 59.6108 58.5555 58.833 59.3333L44.833 73.3333L37.833 56.9167L23.583 42.6667L7.16634 35.6667L21.083 21.6667C21.8608 20.8889 22.7919 20.3333 23.8763 20C24.9608 19.6667 26.0574 19.6111 27.1663 19.8333L35.4163 21.5C41.1941 15.7222 47.2497 11.6389 53.583 9.24999C59.9163 6.8611 66.4441 6.19443 73.1663 7.24999ZM13.083 53.25C15.0275 51.3055 17.403 50.32 20.2097 50.2933C23.0163 50.2667 25.3908 51.2244 27.333 53.1667C29.2752 55.1089 30.2341 57.4844 30.2097 60.2933C30.1852 63.1022 29.1986 65.4767 27.2497 67.4166C25.8608 68.8055 23.5419 70 20.293 71C17.0441 72 12.5575 72.8889 6.83301 73.6666C7.61079 67.9444 8.49967 63.4578 9.49967 60.2067C10.4997 56.9555 11.6941 54.6367 13.083 53.25ZM17.833 57.9167C17.2775 58.4722 16.7219 59.4866 16.1663 60.96C15.6108 62.4333 15.2219 63.9189 14.9997 65.4167C16.4997 65.1944 17.9863 64.82 19.4597 64.2933C20.933 63.7667 21.9463 63.2244 22.4997 62.6666C23.1663 62 23.5275 61.1944 23.583 60.25C23.6386 59.3055 23.333 58.5 22.6663 57.8333C21.9997 57.1667 21.1941 56.8467 20.2497 56.8733C19.3052 56.9 18.4997 57.2478 17.833 57.9167Z" fill="white"/>
</svg>
