<svg width="80" height="80" viewBox="0 0 80 80" fill="none" xmlns="http://www.w3.org/2000/svg">
<path d="M27.5791 69.4737C22.5235 69.4737 18.2591 67.7381 14.7858 64.267C11.3124 60.7959 9.57688 56.5315 9.5791 51.4737C9.5791 49.3626 9.94021 47.307 10.6624 45.307C11.3847 43.307 12.4124 41.5015 13.7458 39.8904L25.5791 25.6404L17.4958 9.47369H61.6624L53.5791 25.6404L65.4124 39.8904C66.7458 41.5015 67.7735 43.307 68.4958 45.307C69.218 47.307 69.5791 49.3626 69.5791 51.4737C69.5791 56.5293 67.8291 60.7937 64.3291 64.267C60.8291 67.7404 56.5791 69.4759 51.5791 69.4737H27.5791ZM39.5791 52.807C37.7458 52.807 36.1769 52.1548 34.8724 50.8504C33.568 49.5459 32.9147 47.9759 32.9124 46.1404C32.9102 44.3048 33.5635 42.7359 34.8724 41.4337C36.1813 40.1315 37.7502 39.4781 39.5791 39.4737C41.408 39.4692 42.978 40.1226 44.2891 41.4337C45.6002 42.7448 46.2524 44.3137 46.2458 46.1404C46.2391 47.967 45.5869 49.537 44.2891 50.8504C42.9913 52.1637 41.4213 52.8159 39.5791 52.807ZM31.6624 22.807H47.4958L50.8291 16.1404H28.3291L31.6624 22.807ZM27.5791 62.807H51.5791C54.7458 62.807 57.4269 61.7104 59.6224 59.517C61.818 57.3237 62.9147 54.6426 62.9124 51.4737C62.9124 50.1404 62.6758 48.8492 62.2024 47.6004C61.7291 46.3515 61.0769 45.2259 60.2458 44.2237L47.9958 29.4737H31.2458L18.9124 44.1404C18.0791 45.1404 17.4269 46.2792 16.9558 47.557C16.4847 48.8348 16.248 50.1404 16.2458 51.4737C16.2458 54.6404 17.3435 57.3215 19.5391 59.517C21.7347 61.7126 24.4147 62.8092 27.5791 62.807Z" fill="white"/>
</svg>
