<svg width="80" height="80" viewBox="0 0 80 80" fill="none" xmlns="http://www.w3.org/2000/svg">
<path d="M60.0003 46.8336H53.3336V53.5002H60.0003M60.0003 33.5002H53.3336V40.1669H60.0003M66.667 60.1669H40.0003V53.5002H46.667V46.8336H40.0003V40.1669H46.667V33.5002H40.0003V26.8336H66.667M33.3336 20.1669H26.667V13.5002H33.3336M33.3336 33.5002H26.667V26.8336H33.3336M33.3336 46.8336H26.667V40.1669H33.3336M33.3336 60.1669H26.667V53.5002H33.3336M20.0003 20.1669H13.3337V13.5002H20.0003M20.0003 33.5002H13.3337V26.8336H20.0003M20.0003 46.8336H13.3337V40.1669H20.0003M20.0003 60.1669H13.3337V53.5002H20.0003M40.0003 20.1669V6.83356H6.66699V66.8336H73.3336V20.1669H40.0003Z" fill="white"/>
</svg>
